<?xml version="1.0" standalone="no"?>
<!DOCTYPE svg PUBLIC "-//W3C//DTD SVG 20010904//EN"
 "http://www.w3.org/TR/2001/REC-SVG-20010904/DTD/svg10.dtd">
<svg version="1.0" xmlns="http://www.w3.org/2000/svg"
 width="500.000000pt" height="500.000000pt" viewBox="0 0 500.000000 500.000000"
 preserveAspectRatio="xMidYMid meet">

<g transform="translate(0.000000,500.000000) scale(0.100000,-0.100000)"
fill="#00a4e8" stroke="none">
<path d="M1290 4775 l0 -35 49 0 c75 0 190 -25 253 -55 66 -31 145 -110 181
-181 14 -27 57 -128 96 -225 l72 -175 -586 -1405 c-323 -772 -601 -1431 -618
-1464 -43 -79 -149 -183 -234 -228 -37 -19 -99 -42 -138 -49 -68 -14 -70 -16
-73 -46 l-3 -32 426 0 426 0 -3 32 c-3 32 -4 33 -64 40 -34 4 -85 17 -113 29
-62 26 -128 97 -137 146 -16 84 -2 127 191 591 l188 452 776 0 776 0 159 -388
c191 -463 206 -508 206 -607 0 -87 -10 -119 -53 -163 -43 -45 -108 -62 -234
-62 l-103 0 0 -35 0 -35 761 0 760 0 -3 32 -3 33 -71 6 c-203 18 -351 132
-464 359 -18 36 -356 837 -751 1780 l-718 1715 -475 3 -476 2 0 -35z m1060
-1639 c199 -477 364 -874 367 -882 4 -12 -106 -14 -737 -14 -703 0 -742 1
-736 18 40 111 733 1759 737 1754 4 -4 170 -398 369 -876z"/>
<path d="M2834 4691 c-113 -20 -294 -77 -294 -93 0 -6 21 -59 46 -119 l45
-108 59 60 c96 98 217 145 406 156 507 28 930 -320 1039 -858 9 -45 22 -134
28 -198 l12 -116 30 0 30 0 3 618 2 617 -34 0 c-33 0 -33 0 -39 -54 -11 -112
-56 -151 -173 -150 -68 1 -79 5 -260 92 -211 101 -314 136 -454 158 -127 19
-321 17 -446 -5z"/>
<path d="M3139 3158 c5 -13 99 -238 210 -501 l200 -478 100 -105 c211 -221
281 -384 268 -622 -7 -118 -5 -122 60 -199 57 -67 130 -103 228 -110 l72 -6
37 62 c173 284 176 708 6 1005 -132 231 -320 397 -830 738 -140 94 -276 186
-301 204 -55 40 -61 41 -50 12z"/>
<path d="M1980 1400 l0 -570 30 0 c25 0 30 4 35 34 17 90 82 135 204 143 80 5
158 -9 246 -47 l45 -19 0 77 0 77 -69 62 c-178 161 -308 408 -373 709 l-23
104 -47 0 -48 0 0 -570z"/>
</g>
</svg>
